<svg
  width="20"
  height="20"
  viewBox="0 0 20 20"
  xmlns="http://www.w3.org/2000/svg"
>
  <path
    fill-rule="evenodd"
    clip-rule="evenodd"
    d="M8.0675 13.1041C8.37374 13.4097 8.87024 13.4097 9.17647 13.1041L14.4372 7.85436C14.7434 7.54876 14.7434 7.05329 14.4372 6.74769C14.1309 6.4421 13.6344 6.4421 13.3282 6.74769L8.62198 11.4441L6.67213 9.49836C6.3659 9.19277 5.8694 9.19277 5.56317 9.49837C5.25694 9.80397 5.25694 10.2994 5.56318 10.605L8.0675 13.1041Z"
    fill="white"
  />
  <path
    fill-rule="evenodd"
    clip-rule="evenodd"
    d="M0 10C0 15.5228 4.47716 20 10 20C15.5228 20 20 15.5228 20 10C20 4.47716 15.5228 0 10 0C4.47716 0 0 4.47716 0 10ZM10 18.4375C5.34011 18.4375 1.5625 14.6599 1.5625 10C1.5625 5.34011 5.34011 1.5625 10 1.5625C14.6599 1.5625 18.4375 5.34011 18.4375 10C18.4375 14.6599 14.6599 18.4375 10 18.4375Z"
    fill="white"
  />
</svg>