<svg width="19" height="20" viewBox="0 0 19 20" fill="none" xmlns="http://www.w3.org/2000/svg">
<path d="M9.04669 0C6.63686 0 4.45581 0.321213 2.83575 0.861235C2.02572 1.13125 1.3547 1.45307 0.854725 1.8471C0.355014 2.24092 0.000842649 2.74622 0.00046503 3.33333L0 16.6667C2.38095e-07 17.2542 0.355212 17.7589 0.85519 18.1529C1.35517 18.5469 2.02619 18.8688 2.83622 19.1388C4.45628 19.6788 6.63779 20 9.04762 20C11.4574 20 13.639 19.6788 15.259 19.1388C16.0691 18.8688 16.7401 18.5469 17.24 18.1529C17.74 17.7589 18.0952 17.2542 18.0952 16.6667V3.33333H18.0948C18.0944 2.74623 17.7407 2.24092 17.241 1.8471C16.741 1.45307 16.0681 1.13125 15.2581 0.861235C13.638 0.321213 11.4565 0 9.04669 0ZM9.04669 0.952846C11.3707 0.952846 13.4755 1.27072 14.9577 1.76479C15.6988 2.01182 16.2829 2.30617 16.6504 2.5958C17.0179 2.88542 17.1424 3.13279 17.1424 3.33426C17.1424 3.53574 17.0179 3.78079 16.6504 4.07041C16.2829 4.36003 15.6988 4.65484 14.9577 4.90188C13.4755 5.39594 11.3707 5.71382 9.04669 5.71382C6.72265 5.71382 4.62021 5.39594 3.13802 4.90188C2.39693 4.65484 1.81281 4.36003 1.44531 4.07041C1.07781 3.78079 0.953311 3.53574 0.953311 3.33426C0.953311 3.13279 1.07781 2.88542 1.44531 2.5958C1.81281 2.30617 2.39693 2.01182 3.13802 1.76479C4.62021 1.27072 6.72265 0.952846 9.04669 0.952846ZM0.952381 4.89165C1.44101 5.25268 2.07635 5.5523 2.83575 5.80543C4.45581 6.34545 6.63686 6.66667 9.04669 6.66667C11.4565 6.66667 13.638 6.34545 15.2581 5.80543C16.0174 5.55232 16.6541 5.25263 17.1429 4.89165L17.1424 7.61905C17.1424 7.82051 17.0179 8.06789 16.6504 8.35752C16.2829 8.64713 15.6988 8.9401 14.9577 9.18713C13.4755 9.68119 11.3707 10.0009 9.04669 10.0009C6.72265 10.0009 4.62021 9.68119 3.13802 9.18713C2.39693 8.9401 1.81281 8.64713 1.44531 8.35752C1.07781 8.06789 0.953311 7.82051 0.953311 7.61905L0.952381 4.89165ZM0.952381 9.1769C1.441 9.53789 2.07641 9.8371 2.83575 10.0902C4.45581 10.6302 6.63686 10.9515 9.04669 10.9515C11.4565 10.9515 13.638 10.6302 15.2581 10.0902C16.0174 9.83713 16.6541 9.53784 17.1429 9.1769L17.1424 12.3805C17.1424 12.582 17.0179 12.8289 16.6504 13.1185C16.2829 13.4081 15.6988 13.7029 14.9577 13.95C13.4755 14.444 11.3707 14.7619 9.04669 14.7619C6.72265 14.7619 4.62021 14.444 3.13802 13.95C2.39693 13.7029 1.81281 13.4081 1.44531 13.1185C1.07781 12.8289 0.953311 12.582 0.953311 12.3805L0.952381 9.1769ZM0.952381 13.9397C1.44101 14.3008 2.07635 14.6004 2.83575 14.8535C4.45581 15.3935 6.63686 15.7148 9.04669 15.7148C11.4565 15.7148 13.638 15.3935 15.2581 14.8535C16.0174 14.6004 16.6541 14.3007 17.1429 13.9397V16.6667C17.1429 16.8681 17.0184 17.115 16.6509 17.4047C16.2834 17.6943 15.6992 17.9882 14.9581 18.2352C13.476 18.7293 11.3717 19.0476 9.04762 19.0476C6.72358 19.0476 4.61928 18.7293 3.13709 18.2352C2.396 17.9882 1.81188 17.6943 1.44438 17.4047C1.07688 17.115 0.952381 16.8681 0.952381 16.6667V13.9397Z" fill="#0A6475"/>
<path d="M15.2025 15.4419C15.0766 15.4442 14.9568 15.4963 14.8693 15.5868C14.7818 15.6772 14.7338 15.7987 14.7357 15.9245V16.8756C14.7319 16.9403 14.7414 17.0051 14.7635 17.0659C14.7857 17.1268 14.82 17.1825 14.8645 17.2296C14.9089 17.2767 14.9625 17.3143 15.022 17.34C15.0815 17.3656 15.1456 17.3788 15.2104 17.3788C15.2751 17.3788 15.3392 17.3656 15.3987 17.34C15.4582 17.3143 15.5118 17.2767 15.5562 17.2296C15.6007 17.1825 15.635 17.1268 15.6572 17.0659C15.6793 17.0051 15.6888 16.9403 15.685 16.8756V15.9245C15.686 15.8609 15.6742 15.7977 15.6502 15.7387C15.6263 15.6798 15.5908 15.6262 15.5458 15.5812C15.5008 15.5362 15.4472 15.5007 15.3883 15.4767C15.3293 15.4528 15.2661 15.441 15.2025 15.4419Z" fill="#0A6475"/>
<path d="M13.5389 15.9175C13.4764 15.9184 13.4148 15.9316 13.3574 15.9564C13.3001 15.9811 13.2482 16.0169 13.2047 16.0618C13.1611 16.1066 13.1269 16.1595 13.1038 16.2176C13.0808 16.2756 13.0694 16.3377 13.0704 16.4001V17.3512C13.0704 17.4774 13.1205 17.5983 13.2097 17.6875C13.2988 17.7767 13.4198 17.8268 13.5459 17.8268C13.6721 17.8268 13.793 17.7767 13.8822 17.6875C13.9714 17.5983 14.0215 17.4774 14.0215 17.3512V16.4001C14.0224 16.3365 14.0106 16.2733 13.9867 16.2143C13.9628 16.1553 13.9273 16.1017 13.8823 16.0567C13.8373 16.0117 13.7837 15.9762 13.7247 15.9523C13.6657 15.9284 13.6025 15.9166 13.5389 15.9175Z" fill="#0A6475"/>
<path d="M15.2025 10.9268C15.0769 10.9291 14.9574 10.9809 14.87 11.071C14.7825 11.1611 14.7342 11.2821 14.7357 11.4076V12.3588C14.7319 12.4234 14.7414 12.4882 14.7635 12.549C14.7857 12.6099 14.82 12.6656 14.8645 12.7127C14.9089 12.7599 14.9625 12.7974 15.022 12.823C15.0815 12.8487 15.1456 12.8619 15.2104 12.8619C15.2751 12.8619 15.3392 12.8487 15.3987 12.823C15.4582 12.7974 15.5118 12.7599 15.5562 12.7127C15.6007 12.6656 15.635 12.6099 15.6572 12.549C15.6793 12.4882 15.6888 12.4234 15.685 12.3588V11.4076C15.6858 11.3441 15.6738 11.2811 15.6497 11.2224C15.6257 11.1636 15.5902 11.1102 15.5452 11.0654C15.5002 11.0206 15.4467 10.9852 15.3878 10.9614C15.329 10.9376 15.2659 10.9259 15.2025 10.9268Z" fill="#0A6475"/>
<path d="M13.5389 11.4024C13.4131 11.4042 13.2931 11.4559 13.2053 11.546C13.1174 11.6361 13.0689 11.7574 13.0703 11.8832V12.8343C13.0703 12.9605 13.1204 13.0814 13.2096 13.1706C13.2988 13.2598 13.4198 13.3099 13.5459 13.3099C13.672 13.3099 13.793 13.2598 13.8822 13.1706C13.9714 13.0814 14.0215 12.9605 14.0215 12.8343V11.8832C14.0222 11.8197 14.0102 11.7568 13.9862 11.698C13.9621 11.6392 13.9266 11.5858 13.8816 11.541C13.8366 11.4962 13.7831 11.4608 13.7243 11.437C13.6654 11.4132 13.6024 11.4014 13.5389 11.4024Z" fill="#0A6475"/>
<path d="M15.2025 6.40997C15.0766 6.41226 14.9568 6.46434 14.8693 6.55479C14.7818 6.64525 14.7338 6.76671 14.7357 6.89254V7.84191C14.7319 7.90657 14.7414 7.97132 14.7635 8.0322C14.7857 8.09307 14.82 8.14877 14.8645 8.19589C14.9089 8.24301 14.9625 8.28054 15.022 8.3062C15.0815 8.33185 15.1456 8.3451 15.2104 8.3451C15.2751 8.3451 15.3392 8.33185 15.3987 8.3062C15.4582 8.28054 15.5118 8.24301 15.5562 8.19589C15.6007 8.14877 15.635 8.09307 15.6572 8.0322C15.6793 7.97132 15.6888 7.90657 15.685 7.84191V6.89254C15.686 6.82891 15.6742 6.76573 15.6502 6.70675C15.6263 6.64777 15.5908 6.59418 15.5458 6.54917C15.5008 6.50417 15.4472 6.46867 15.3883 6.44476C15.3293 6.42085 15.2661 6.40901 15.2025 6.40997Z" fill="#0A6475"/>
<path d="M13.5389 6.88543C13.4131 6.88726 13.2931 6.9389 13.2053 7.02902C13.1174 7.11915 13.0689 7.24042 13.0703 7.36625V8.31737C13.0703 8.4435 13.1204 8.56445 13.2096 8.65364C13.2988 8.74282 13.4198 8.79293 13.5459 8.79293C13.672 8.79293 13.793 8.74282 13.8822 8.65364C13.9714 8.56445 14.0215 8.4435 14.0215 8.31737V7.36625C14.0222 7.30276 14.0102 7.23976 13.9862 7.18098C13.9621 7.12221 13.9266 7.06885 13.8816 7.02403C13.8366 6.97922 13.7831 6.94386 13.7243 6.92006C13.6654 6.89626 13.6024 6.88448 13.5389 6.88543Z" fill="#0A6475"/>
</svg>
