<svg width="21" height="20" viewBox="0 0 21 20" fill="none" xmlns="http://www.w3.org/2000/svg">
<path d="M10.175 17.9454H2.72275C1.93557 17.9454 1.2959 17.305 1.2959 16.5178V2.72994C1.2959 1.93845 1.93989 1.2959 2.73066 1.2959H15.9933C16.7804 1.2959 17.4201 1.93629 17.4201 2.72275V10.5845C17.4201 10.9421 17.7101 11.2321 18.0677 11.2321C18.4253 11.2321 18.7153 10.9421 18.7153 10.5845V2.72275C18.7153 1.22178 17.4935 0 15.9925 0H2.73066C1.22466 0 0 1.22466 0 2.72994V16.5178C0 18.0195 1.22178 19.2413 2.72275 19.2413H10.1743C10.5319 19.2413 10.8219 18.9513 10.8219 18.5937C10.8219 18.2361 10.5327 17.9454 10.175 17.9454Z" fill="white"/>
<path d="M14.6398 4.48566H4.07337C3.71576 4.48566 3.42578 4.77563 3.42578 5.13324C3.42578 5.49086 3.71576 5.78083 4.07337 5.78083H14.6398C14.9975 5.78083 15.2874 5.49086 15.2874 5.13324C15.2874 4.77563 14.9975 4.48566 14.6398 4.48566Z" fill="white"/>
<path d="M14.6398 8.97131H4.07337C3.71576 8.97131 3.42578 9.26129 3.42578 9.6189C3.42578 9.97651 3.71576 10.2665 4.07337 10.2665H14.6398C14.9975 10.2665 15.2874 9.97651 15.2874 9.6189C15.2874 9.26129 14.9975 8.97131 14.6398 8.97131Z" fill="white"/>
<path d="M10.5421 13.4554H4.07337C3.71576 13.4554 3.42578 13.7454 3.42578 14.103C3.42578 14.4606 3.71576 14.7506 4.07337 14.7506H10.5421C10.8997 14.7506 11.1896 14.4606 11.1896 14.103C11.1896 13.7454 10.8997 13.4554 10.5421 13.4554Z" fill="white"/>
<rect x="12.8638" y="13.936" width="2.14402" height="8.57563" transform="rotate(-45 12.8638 13.936)" fill="white"/>
<rect width="2.14402" height="8.57563" transform="matrix(-0.707107 -0.707107 -0.707107 0.707107 20.3682 13.936)" fill="white"/>
</svg>
