<svg width="23" height="20" viewBox="0 0 23 20" fill="none" xmlns="http://www.w3.org/2000/svg">
<path fill-rule="evenodd" clip-rule="evenodd" d="M20.4107 12.8766C20.5953 12.8766 20.771 12.7923 20.8933 12.6451L22.0302 11.2756C22.2656 10.992 22.2404 10.5591 21.9739 10.3086C21.7074 10.0581 21.3005 10.0849 21.065 10.3685L20.4107 11.1567L19.7564 10.3685C19.5209 10.0849 19.114 10.0581 18.8475 10.3086C18.581 10.5591 18.5558 10.992 18.7912 11.2756L19.9281 12.6451C20.0503 12.7923 20.2261 12.8766 20.4107 12.8766Z" fill="white"/>
<path fill-rule="evenodd" clip-rule="evenodd" d="M20.4384 12.8766C20.8015 12.8766 21.0959 12.5832 21.0959 12.2212V10.0296C21.0959 4.49036 16.5919 -5.43594e-05 11.0359 -5.43594e-05C7.66896 -5.43594e-05 4.68848 1.64967 2.86349 4.17968C2.65149 4.47358 2.7186 4.88319 3.0134 5.09455C3.30819 5.30592 3.71904 5.23901 3.93104 4.9451C5.51958 2.74289 8.11 1.31093 11.0359 1.31093C15.8657 1.31093 19.781 5.2144 19.781 10.0296V12.2212C19.781 12.5832 20.0753 12.8766 20.4384 12.8766Z" fill="white"/>
<path fill-rule="evenodd" clip-rule="evenodd" d="M3.34401 9.69146C3.61054 9.44096 3.63575 9.00801 3.40033 8.72442L2.26343 7.35493C2.14121 7.2077 1.96547 7.12338 1.78085 7.12337C1.59623 7.12337 1.42049 7.20769 1.29826 7.35492L0.161321 8.72441C-0.0741071 9.00799 -0.0489013 9.44095 0.21762 9.69145C0.484141 9.94195 0.891051 9.91513 1.12648 9.63155L1.78083 8.84335L2.43515 9.63154C2.67058 9.91512 3.07749 9.94195 3.34401 9.69146Z" fill="white"/>
<path fill-rule="evenodd" clip-rule="evenodd" d="M1.0957 9.97036C1.0957 15.5096 5.53247 20 11.0055 20C14.3222 20 17.2582 18.3503 19.056 15.8203C19.2648 15.5264 19.1987 15.1168 18.9083 14.9054C18.6179 14.694 18.2132 14.7609 18.0044 15.0548C16.4395 17.2571 13.8878 18.689 11.0055 18.689C6.24786 18.689 2.39102 14.7855 2.39102 9.97036V7.77879C2.39102 7.41677 2.10106 7.1233 1.74336 7.1233C1.38567 7.1233 1.0957 7.41677 1.0957 7.77879V9.97036Z" fill="white"/>
<path fill-rule="evenodd" clip-rule="evenodd" d="M8.49316 10C8.49316 11.4375 9.65844 12.6028 11.0959 12.6028C12.5334 12.6028 13.6986 11.4375 13.6986 10C13.6986 8.56259 12.5334 7.39731 11.0959 7.39731C9.65844 7.39731 8.49316 8.56259 8.49316 10ZM11.0959 11.3014C10.3772 11.3014 9.79453 10.7188 9.79453 10C9.79453 9.28131 10.3772 8.69868 11.0959 8.69868C11.8146 8.69868 12.3973 9.28131 12.3973 10C12.3973 10.7188 11.8146 11.3014 11.0959 11.3014Z" fill="white"/>
<path fill-rule="evenodd" clip-rule="evenodd" d="M9.14411 15.7886C9.14411 16.1475 9.43534 16.4384 9.7946 16.4384H12.3966C12.7558 16.4384 13.047 16.1475 13.047 15.7886V14.6873C13.5005 14.504 13.9219 14.2589 14.3009 13.9626L15.2571 14.514C15.4065 14.6002 15.5841 14.6236 15.7507 14.579C15.9174 14.5344 16.0594 14.4255 16.1457 14.2762L17.4467 12.0253C17.5329 11.876 17.5563 11.6987 17.5117 11.5322C17.467 11.3658 17.358 11.2238 17.2086 11.1377L16.2501 10.5849C16.2826 10.3502 16.2995 10.1107 16.2995 9.86741C16.2995 9.62134 16.2822 9.37914 16.249 9.14195L17.2086 8.58848C17.5197 8.40904 17.6263 8.01165 17.4467 7.70087L16.1457 5.44999C15.9661 5.13921 15.5682 5.03273 15.2571 5.21216L14.2945 5.76731C13.9172 5.47321 13.4979 5.22984 13.047 5.04758V3.93752C13.047 3.57866 12.7558 3.28774 12.3966 3.28774H9.7946C9.43534 3.28774 9.14411 3.57866 9.14411 3.93752V5.04759C8.69325 5.22985 8.27402 5.47322 7.89668 5.76731L6.93404 5.21215C6.62292 5.03273 6.22509 5.13921 6.04546 5.44999L4.74449 7.70087C4.56486 8.01165 4.67145 8.40904 4.98257 8.58848L5.9422 9.14194C5.90891 9.37914 5.89166 9.62134 5.89166 9.86741C5.89166 10.1107 5.90853 10.3502 5.94106 10.5849L4.98258 11.1377C4.83318 11.2238 4.72415 11.3658 4.6795 11.5322C4.63485 11.6987 4.65822 11.876 4.74448 12.0253L6.04546 14.2762C6.13172 14.4255 6.2738 14.5344 6.44045 14.579C6.60709 14.6236 6.78464 14.6002 6.93405 14.514L7.89025 13.9626C8.26927 14.2589 8.6907 14.504 9.14411 14.6873V15.7886ZM10.4451 15.1389V14.2272C10.4451 13.9397 10.256 13.6864 9.9802 13.6044C9.38633 13.4278 8.85103 13.1136 8.41174 12.6979C8.20274 12.5001 7.88843 12.463 7.63909 12.6068L6.8469 13.0637L6.19641 11.9382L6.98968 11.4807C7.23845 11.3373 7.36356 11.0478 7.29749 10.7686C7.22912 10.4796 7.19264 10.178 7.19264 9.86741C7.19264 9.55449 7.22968 9.25081 7.29908 8.95989C7.36577 8.68034 7.24071 8.39024 6.99156 8.24655L6.19641 7.78794L6.8469 6.66249L7.64487 7.12268C7.89386 7.26627 8.20768 7.22955 8.41671 7.03238C8.85509 6.61886 9.38858 6.30635 9.98016 6.13047C10.256 6.04847 10.4451 5.79516 10.4451 5.50769V4.5873H11.7461V5.50769C11.7461 5.79517 11.9352 6.04847 12.211 6.13048C12.8026 6.30636 13.3361 6.61887 13.7745 7.03238C13.9835 7.22956 14.2973 7.26627 14.5463 7.12267L15.3443 6.6625L15.9947 7.78794L15.1996 8.24655C14.9504 8.39024 14.8254 8.68034 14.8921 8.95989C14.9615 9.25081 14.9985 9.55449 14.9985 9.86741C14.9985 10.1781 14.9621 10.4796 14.8937 10.7685C14.8276 11.0478 14.9527 11.3373 15.2015 11.4807L15.9947 11.9382L15.3443 13.0637L14.5521 12.6068C14.3027 12.463 13.9884 12.5001 13.7794 12.6979C13.3401 13.1136 12.8048 13.4278 12.211 13.6044C11.9351 13.6864 11.7461 13.9397 11.7461 14.2272V15.1389H10.4451Z" fill="white"/>
</svg>
