<svg width="203" height="24" viewBox="0 0 203 24" fill="none" xmlns="http://www.w3.org/2000/svg">
<g clip-path="url(#clip0_1_1052)">
<path d="M28.2178 4.584C28.2178 3.936 28.6665 3.396 29.4407 3.396C30.1276 3.396 30.5564 3.916 30.878 4.368L38.3385 14.368V4.584C38.3385 3.936 38.8546 3.396 39.5177 3.396C40.1807 3.396 40.7167 3.936 40.7167 4.584V18.172C40.7167 18.368 40.546 18.516 40.3515 18.516H39.1286C38.7434 18.516 38.529 18.32 38.3583 18.104L30.5961 7.692V18.168C30.5961 18.364 30.4254 18.512 30.2308 18.512H28.5593C28.3647 18.512 28.2178 18.36 28.2178 18.168V4.584Z" fill="#2A2938"/>
<path d="M44.8579 13.8519C45.1795 15.5999 46.4857 16.7479 48.2248 16.7479C49.1698 16.7479 49.9837 16.5759 50.7103 16.1439C50.9882 15.9719 51.2661 15.9079 51.5044 15.9079C52.0841 15.9079 52.489 16.3599 52.489 16.8799C52.489 17.2479 52.2746 17.6359 51.826 17.9159C50.7738 18.5839 49.5549 18.7999 48.2248 18.7999C44.9214 18.7999 42.5868 16.4039 42.5868 13.0319C42.5868 9.65992 44.838 7.26392 48.0104 7.26392C51.1828 7.26392 53.2871 9.53192 53.2871 12.7079C53.2871 13.6159 52.6439 13.8519 52.1952 13.8519H44.8618H44.8579ZM44.8579 12.2319H51.0557C50.8612 10.4839 49.6621 9.31592 48.0104 9.31592C46.3587 9.31592 45.1596 10.4839 44.8579 12.2319Z" fill="#2A2938"/>
<path d="M54.9348 8.40794C54.9348 7.80394 55.451 7.28394 56.0704 7.28394C56.6897 7.28394 57.2059 7.80394 57.2059 8.40794V13.8079C57.2059 15.6439 58.3216 16.8759 59.9733 16.8759C61.625 16.8759 62.7407 15.6439 62.7407 13.8079V8.40794C62.7407 7.80394 63.2568 7.28394 63.8564 7.28394C64.4996 7.28394 64.9919 7.80394 64.9919 8.40794V13.8719C64.9919 16.8319 62.9551 18.8639 59.9733 18.8639C56.9915 18.8639 54.9348 16.8319 54.9348 13.8719V8.40794Z" fill="#2A2938"/>
<path d="M72.6866 7.28391C73.2226 7.28391 73.6713 7.73591 73.6713 8.27591C73.6713 8.81591 73.2226 9.26791 72.6866 9.26791H71.9998C70.1972 9.26791 69.2562 10.4999 69.2562 12.2719V18.1919C69.2562 18.3639 69.0855 18.5159 68.9147 18.5159H67.3266C67.1558 18.5159 66.9851 18.3639 66.9851 18.1919V12.2279C66.9851 9.26791 68.8274 7.27991 72.0037 7.27991H72.6906L72.6866 7.28391Z" fill="#2A2938"/>
<path d="M74.3145 13.0279C74.3145 9.65989 76.6531 7.25989 79.9525 7.25989C83.2519 7.25989 85.6541 9.65589 85.6541 13.0279C85.6541 16.3999 83.2758 18.8399 79.9525 18.8399C76.6293 18.8399 74.3145 16.4439 74.3145 13.0279ZM83.4266 13.0279C83.4266 10.8479 82.0132 9.31189 79.9525 9.31189C77.8919 9.31189 76.5221 10.8439 76.5221 13.0279C76.5221 15.2119 77.9594 16.7879 79.9525 16.7879C81.9457 16.7879 83.4266 15.2559 83.4266 13.0279Z" fill="#2A2938"/>
<path d="M87.6948 4.34397C87.6948 3.82397 88.1236 3.39197 88.6398 3.39197H93.0787C97.474 3.39197 100.67 6.56797 100.67 10.952C100.67 15.336 97.474 18.512 93.0787 18.512H88.6398C88.1236 18.512 87.6948 18.08 87.6948 17.56V4.34397ZM90.0731 16.248H92.9874C96.0764 16.248 98.284 14.024 98.284 10.956C98.284 7.88797 96.0764 5.66397 92.9874 5.66397H90.0731V16.248Z" fill="#2A2938"/>
<path d="M103.795 2.93994C104.565 2.93994 105.208 3.58794 105.208 4.36394C105.208 5.13994 104.565 5.78794 103.795 5.78794C103.025 5.78794 102.358 5.13994 102.358 4.36394C102.358 3.58794 103.001 2.93994 103.795 2.93994ZM102.659 8.40794C102.659 7.80394 103.152 7.28394 103.795 7.28394C104.394 7.28394 104.911 7.80394 104.911 8.40794V18.1919C104.911 18.3639 104.76 18.5159 104.589 18.5159H102.981C102.81 18.5159 102.659 18.3639 102.659 18.1919V8.40794Z" fill="#2A2938"/>
<path d="M114.193 9.07589C114.193 9.59589 113.808 10.0479 113.248 10.0479C113.034 10.0479 112.756 9.95989 112.498 9.81189C111.899 9.48789 111.275 9.31589 110.549 9.31589C109.647 9.31589 109.135 9.81189 109.135 10.4399C109.135 12.4279 114.666 11.4999 114.666 15.4719C114.666 17.4799 113.121 18.8639 110.592 18.8639C109.584 18.8639 106.669 18.5399 106.669 17.0479C106.669 16.5279 107.078 16.0759 107.654 16.0759C107.888 16.0759 108.17 16.1639 108.448 16.3119C109.111 16.6799 109.798 16.8079 110.592 16.8079C111.815 16.8079 112.435 16.1599 112.435 15.5119C112.435 13.3519 106.924 14.2799 106.924 10.4999C106.924 8.57589 108.254 7.25989 110.549 7.25989C111.577 7.25989 114.193 7.62789 114.193 9.07589Z" fill="#2A2938"/>
<path d="M121.698 7.26392C122.706 7.26392 125.537 7.63192 125.537 9.07992C125.537 9.59992 125.128 10.0519 124.552 10.0519C124.318 10.0519 124.036 9.98792 123.758 9.81592C123.115 9.44792 122.472 9.31992 121.702 9.31992C119.708 9.31992 118.271 10.8519 118.271 13.0359C118.271 15.2199 119.708 16.7519 121.702 16.7519C122.496 16.7519 123.159 16.5999 123.758 16.2319C124.036 16.0799 124.314 16.0159 124.552 16.0159C125.132 16.0159 125.537 16.4679 125.537 16.9879C125.537 17.3559 125.323 17.7439 124.874 18.0239C123.953 18.6079 122.881 18.7999 121.702 18.7999C118.398 18.7999 116.064 16.4039 116.064 13.0319C116.064 9.65992 118.402 7.26392 121.702 7.26392H121.698Z" fill="#2A2938"/>
<path d="M126.395 13.0279C126.395 9.65989 128.733 7.25989 132.033 7.25989C135.332 7.25989 137.734 9.65589 137.734 13.0279C137.734 16.3999 135.356 18.8399 132.033 18.8399C128.709 18.8399 126.395 16.4439 126.395 13.0279ZM135.507 13.0279C135.507 10.8479 134.093 9.31189 132.033 9.31189C129.972 9.31189 128.602 10.8439 128.602 13.0279C128.602 15.2119 130.039 16.7879 132.033 16.7879C134.026 16.7879 135.507 15.2559 135.507 13.0279Z" fill="#2A2938"/>
<path d="M138.743 8.90396C138.485 8.34396 138.723 7.67196 139.298 7.41196C139.449 7.32396 139.6 7.30396 139.771 7.30396C140.18 7.30396 140.609 7.53995 140.799 7.95195L143.952 15.016L147.124 7.95195C147.295 7.53995 147.704 7.30396 148.133 7.30396C148.303 7.30396 148.454 7.32396 148.605 7.41196C149.185 7.67196 149.419 8.33996 149.161 8.90396L145 17.932C144.805 18.364 144.571 18.516 144.186 18.516H143.714C143.328 18.516 143.09 18.364 142.9 17.932L138.739 8.90396H138.743Z" fill="#2A2938"/>
<path d="M152.445 13.8519C152.766 15.5999 154.072 16.7479 155.811 16.7479C156.756 16.7479 157.57 16.5759 158.297 16.1439C158.575 15.9719 158.853 15.9079 159.091 15.9079C159.671 15.9079 160.076 16.3599 160.076 16.8799C160.076 17.2479 159.861 17.6359 159.413 17.9159C158.36 18.5839 157.142 18.7999 155.811 18.7999C152.508 18.7999 150.173 16.4039 150.173 13.0319C150.173 9.65992 152.425 7.26392 155.597 7.26392C158.769 7.26392 160.874 9.53192 160.874 12.7079C160.874 13.6159 160.231 13.8519 159.782 13.8519H152.449H152.445ZM152.445 12.2319H158.642C158.448 10.4839 157.249 9.31592 155.597 9.31592C153.945 9.31592 152.746 10.4839 152.445 12.2319Z" fill="#2A2938"/>
<path d="M168.223 7.28391C168.759 7.28391 169.208 7.73591 169.208 8.27591C169.208 8.81591 168.759 9.26791 168.223 9.26791H167.536C165.734 9.26791 164.793 10.4999 164.793 12.2719V18.1919C164.793 18.3639 164.622 18.5159 164.451 18.5159H162.863C162.692 18.5159 162.521 18.3639 162.521 18.1919V12.2279C162.521 9.26791 164.364 7.27991 167.54 7.27991H168.227L168.223 7.28391Z" fill="#2A2938"/>
<path d="M169.958 8.90396C169.7 8.34396 169.938 7.67196 170.514 7.41196C170.665 7.32396 170.816 7.30396 170.986 7.30396C171.395 7.30396 171.824 7.53995 172.015 7.95195L175.187 15.036L178.34 7.95195C178.51 7.53995 178.919 7.30396 179.348 7.30396C179.519 7.30396 179.67 7.32396 179.821 7.41196C180.4 7.67196 180.635 8.33996 180.377 8.90396L175.894 18.776C174.778 21.24 174.179 22.86 171.518 22.86H170.919C170.383 22.86 169.934 22.408 169.934 21.868C169.934 21.328 170.383 20.876 170.919 20.876H171.542C172.722 20.876 173.023 20.12 173.623 18.716L174.052 17.788L169.958 8.90796V8.90396Z" fill="#2A2938"/>
<path d="M192.085 3.89191C192.236 3.52391 192.558 3.33191 192.899 3.33191C193.221 3.33191 193.542 3.52791 193.693 3.89191L199.911 18.2119C199.975 18.3639 199.891 18.5159 199.76 18.5159H198.708C198.581 18.5159 198.474 18.4959 198.406 18.3439L196.905 14.7599H188.885L187.364 18.3439C187.301 18.4959 187.194 18.5159 187.063 18.5159H186.011C185.884 18.5159 185.796 18.3639 185.86 18.2119L192.077 3.89191H192.085ZM196.373 13.5279L192.899 5.29591L189.405 13.5279H196.373Z" fill="#2A2938"/>
<path d="M201.646 4.064C201.646 3.696 201.948 3.396 202.309 3.396C202.694 3.396 202.996 3.7 202.996 4.064V18.32C202.996 18.428 202.889 18.516 202.782 18.516H201.837C201.729 18.516 201.642 18.428 201.642 18.32V4.064H201.646Z" fill="#2A2938"/>
<path d="M9.70371 21.152V2.47202L7.42468 0.240021L7.5835 0.0720215L9.93399 2.37602V2.42402L9.93796 21.152H9.70371Z" fill="#FBA834"/>
<path d="M9.70374 21.152V2.472L7.49618 0.312L5.55464 1.96L7.00385 3.636L6.82915 3.788L5.22906 1.932L7.50809 0L9.93402 2.376V2.424L9.93799 21.152H9.70374Z" fill="#FBA834"/>
<path d="M9.29079 2.93998L8.54832 2.19598L7.73041 2.92798L7.57556 2.75198L8.55626 1.87598L9.45357 2.77598L9.29079 2.93998Z" fill="#FBA834"/>
<path d="M6.95619 22.32L5.51492 21.764L3.39471 19.732L4.1213 18.86L6.57503 21.244L6.41224 21.412L4.13718 19.2L3.71235 19.716L5.63801 21.564L6.89266 22.044L7.14677 21.768L7.3175 21.924L6.95619 22.32Z" fill="#FBA834"/>
<path d="M7.96072 6.90799H6.34079V6.46399H6.57107V6.67599H7.73044V3.82399L6.0708 1.94399L7.44854 0.73999L8.08778 1.35199L7.11502 2.19999L6.96415 2.02399L7.74632 1.34399L7.4406 1.05199L6.39638 1.96799L7.96072 3.73199V6.90799Z" fill="#FBA834"/>
<path d="M6.18194 4.25204L4.77244 2.68004L3.70043 2.96804L3.64087 2.74404L4.85185 2.42004L6.35267 4.09604L6.18194 4.25204Z" fill="#FBA834"/>
<path d="M5.02258 10.392L3.6369 9.28399L2.96589 10.032L2.79517 9.87599L3.61307 8.96399L5.02258 10.096L5.72534 9.52799H8.31009V9.75999H5.80872L5.02258 10.392Z" fill="#FBA834"/>
<path d="M0.341437 13.96L0.17865 13.792L1.44522 12.576L3.7163 12.912L6.31296 10.7H8.31008V10.932H6.39634L3.78777 13.16L1.52462 12.824L0.341437 13.96Z" fill="#FBA834"/>
<path d="M7.58749 21.636L1.11966 15.368L1.08393 15.912L3.81558 18.448L3.0612 19.3L2.89047 19.144L3.49398 18.46L0.84967 16.004L0.925108 14.848L7.57557 21.296L8.28231 20.48L3.6647 16.236L5.50698 14.688L4.51835 13.78L6.80531 11.864H6.84502C6.84502 11.864 7.72248 11.856 8.19496 11.856V3.47596L7.92894 3.16396L8.10364 3.01196L8.42525 3.38796V12.084H8.3101C7.93688 12.084 7.08721 12.092 6.88869 12.092L4.86774 13.784L5.85638 14.692L4.0141 16.24L8.60392 20.46L7.58749 21.632V21.636Z" fill="#FBA834"/>
<path d="M3.33117 15.812L3.17632 15.636L3.94262 14.964L1.74697 13.536L0.647162 14.604L0.484375 14.436L1.71918 13.24L4.32378 14.94L3.33117 15.812Z" fill="#FBA834"/>
<path d="M9.1121 23.936L7.53187 23.524L8.05994 22.968L7.69069 22.584L7.07924 23.276L6.90852 23.12L7.68275 22.24L8.37757 22.968L7.96862 23.396L9.02872 23.672L9.7037 22.86V21.94L8.76668 22.736L8.02421 21.944L9.21931 20.544L9.21533 14.912H7.46835L6.28119 13.828L7.38497 12.804H9.21931V2.75598H9.44959V13.036H7.47232L6.62265 13.828L7.55967 14.68H9.44562L9.44959 20.628L8.33787 21.94L8.78256 22.416L9.93795 21.44V22.944L9.1121 23.936Z" fill="#FBA834"/>
<path d="M8.1632 19.448L4.93127 16.368L6.11843 15.256L6.75767 15.892H8.17114L8.15923 19.448H8.1632ZM5.26876 16.368L7.93292 18.908L7.94086 16.124H6.66238L6.11446 15.576L5.26876 16.368Z" fill="#FBA834"/>
<path d="M12.1852 24H12.1773L11.7406 23.988C11.3514 23.976 10.9822 23.792 10.7281 23.476L10.2596 22.892V18.54L10.4819 18.304L10.2596 18.068V12.996L10.4899 12.752L10.2636 12.524V7.09199L10.5534 6.77999L10.2636 6.46799V2.31999L11.3435 1.49599C11.6016 1.29999 11.82 1.03999 11.9748 0.747987L12.0383 0.627987C12.2408 0.247987 12.6379 0.0319869 13.0468 0.0799869L14.9804 0.303987L16.0842 1.17599L15.9413 1.35999L14.8851 0.527987L13.0151 0.311987C12.7014 0.275987 12.3957 0.443987 12.2369 0.739987L12.1733 0.859987C12.0026 1.18399 11.7604 1.46799 11.4785 1.68399L10.4899 2.43599V6.36799L10.8671 6.77199L10.4899 7.17599V12.42L10.8075 12.74L10.4859 13.084V17.972L10.7956 18.3L10.4859 18.628V22.808L10.9028 23.328C11.1132 23.592 11.4189 23.748 11.7406 23.756L12.1773 23.768C12.1773 23.768 12.1773 23.768 12.1813 23.768C12.3838 23.768 12.8999 23.44 13.4717 22.944C13.7774 22.68 14.1069 22.424 14.4484 22.18L15.1472 21.684L15.2782 21.876L14.5794 22.372C14.2419 22.608 13.9203 22.86 13.6186 23.12C13.4677 23.248 13.1739 23.496 12.8682 23.696C12.5585 23.9 12.3321 24 12.1733 24H12.1852Z" fill="#0081C9"/>
<path d="M12.7927 12.62H10.5931V12.852H12.7927V12.62Z" fill="#0081C9"/>
<path d="M12.2766 7.33996L12.1535 7.20796C11.9748 7.01996 11.7406 6.91596 11.4904 6.91596H10.6169V6.68396H11.4904C11.8001 6.68396 12.1019 6.81596 12.3203 7.05196L12.4433 7.18396L12.2766 7.34396V7.33996Z" fill="#0081C9"/>
<path d="M16.8068 3.43997C16.5924 3.43997 16.386 3.36397 16.2152 3.21997L14.7382 1.97597C14.496 1.77197 14.2102 1.65197 13.9044 1.62397L13.1739 1.55597L13.1937 1.32397L13.9243 1.39197C14.2777 1.42397 14.6072 1.56397 14.8851 1.79597L16.3621 3.03997C16.6401 3.27197 17.0331 3.25597 17.2912 2.99997L17.454 3.16797C17.2873 3.33197 17.0728 3.42797 16.8426 3.43597C16.8307 3.43597 16.8187 3.43597 16.8029 3.43597L16.8068 3.43997Z" fill="#0081C9"/>
<path d="M17.9384 9.11993L17.7875 8.94393L19.0541 7.82393C19.6616 7.29593 19.7886 6.34393 19.34 5.65593L18.4665 4.30793L18.661 4.17993L19.5345 5.52793C19.7807 5.90793 19.8839 6.37193 19.8244 6.83193C19.7648 7.29193 19.5425 7.70793 19.205 7.99993L17.9384 9.11993Z" fill="#0081C9"/>
<path d="M18.121 14.984C17.6684 14.984 17.2396 14.74 16.9855 14.324L16.5646 13.628L16.7632 13.508L17.184 14.204C17.4302 14.612 17.8749 14.82 18.3156 14.736H18.3275H19.3122C19.7847 14.644 20.0268 14.384 20.2055 13.788L20.5073 12.884C20.6979 12.256 20.7098 11.616 20.7058 10.848L20.2293 7.59199C20.2293 7.59199 20.2095 7.57999 20.1817 7.57599C20.146 7.57599 20.1102 7.57599 20.0824 7.59199L19.467 8.94799C19.2844 9.42799 19.3479 9.57599 19.4432 9.79599C19.4591 9.83199 19.475 9.87199 19.4908 9.91199L19.2764 9.99999C19.2606 9.95999 19.2447 9.92399 19.2288 9.89199C19.1216 9.64799 19.0303 9.43999 19.2486 8.86399V8.85599L19.8919 7.44399L19.9117 7.42799C20.007 7.34399 20.1738 7.31599 20.2968 7.36399C20.3882 7.39999 20.4437 7.47199 20.4557 7.56399L20.9321 10.832V10.84C20.9321 11.632 20.9242 12.292 20.7217 12.956L20.4199 13.86C20.2135 14.54 19.8998 14.86 19.336 14.968H19.3241H18.3354C18.26 14.98 18.1846 14.988 18.1091 14.988L18.121 14.984Z" fill="#0081C9"/>
<path d="M17.7002 18.32L17.4937 18.216L17.7677 17.648C17.9702 17.292 18.3077 17.076 18.6054 16.88C18.8397 16.728 19.062 16.58 19.1573 16.404C19.4551 15.856 19.6179 15.528 19.7052 15.336L18.8556 15.956L18.7206 15.768L19.8601 14.936H19.8879C19.9355 14.924 19.9832 14.948 20.011 14.988C20.0546 15.052 20.0348 15.136 19.9871 15.264C19.9554 15.352 19.8998 15.468 19.8283 15.616C19.7172 15.844 19.5583 16.148 19.3598 16.516C19.2367 16.744 18.9906 16.904 18.7285 17.076C18.4426 17.264 18.1449 17.456 17.9662 17.76L17.6922 18.32H17.7002Z" fill="#0081C9"/>
<path d="M16.3621 20.736C16.3066 20.736 16.2549 20.732 16.1994 20.72C16.0008 20.684 15.8182 20.592 15.6713 20.444L14.3253 19.108L14.4881 18.944L15.8341 20.28C16.0683 20.512 16.4018 20.568 16.6877 20.428C17.9027 19.828 18.268 19.016 18.4625 18.584C18.5062 18.488 18.5379 18.412 18.5737 18.36L18.7682 18.488C18.7444 18.528 18.7087 18.6 18.6729 18.684C18.4784 19.112 18.0774 20.004 16.787 20.644C16.652 20.712 16.5091 20.744 16.3621 20.744V20.736Z" fill="#0081C9"/>
<path d="M12.8245 5.15596C12.749 5.15596 12.6736 5.14796 12.5942 5.12796C12.3321 5.05996 12.1019 4.87996 11.9708 4.62796C11.8279 4.35996 11.55 4.22396 11.272 4.28796L10.4621 4.47196L10.4105 4.24396L11.2204 4.05996C11.407 4.01596 11.5976 4.03996 11.7683 4.12396C11.9391 4.20796 12.082 4.34396 12.1733 4.51996C12.2766 4.71596 12.4473 4.85196 12.6498 4.90396C12.8443 4.95196 13.0429 4.91596 13.2136 4.80396L13.5392 4.58396L13.6662 4.77596L13.3406 4.99596C13.1818 5.09996 13.0032 5.15596 12.8245 5.15596Z" fill="#0081C9"/>
<path d="M15.6594 4.74402C15.5323 4.74402 15.4132 4.69602 15.3139 4.60802H15.31L15.306 4.60002L14.0196 3.10002C13.7615 2.86402 13.3922 2.82802 13.0984 3.00402L12.8602 3.14802L12.7411 2.94802L12.9793 2.80402C13.3644 2.57202 13.8449 2.62402 14.1784 2.93202H14.1824L14.1863 2.94002L15.4727 4.44002C15.5283 4.49202 15.6038 4.51602 15.6752 4.51202C15.7507 4.50802 15.8221 4.46802 15.8738 4.40402L16.0524 4.55202C15.9611 4.66402 15.8301 4.73202 15.6911 4.74402C15.6792 4.74402 15.6673 4.74402 15.6554 4.74402H15.6594Z" fill="#0081C9"/>
<path d="M18.4585 11.472L18.2481 11.372L18.2997 11.264C18.4466 10.956 18.4505 10.596 18.3195 10.28L18.1488 9.88001C17.9264 9.35601 17.5453 8.92401 17.0728 8.65601L16.9021 8.56001C16.6162 8.40001 16.2708 8.41601 16.0008 8.60801L15.3616 9.05601L15.2305 8.86401L15.8698 8.41601C16.2152 8.17601 16.6519 8.15201 17.0172 8.35601L17.188 8.45201C17.7041 8.74401 18.125 9.22001 18.3632 9.78801L18.5339 10.188C18.6927 10.564 18.6848 10.992 18.5101 11.364L18.4585 11.472Z" fill="#0081C9"/>
<path d="M16.7711 13.62L16.5686 13.508L16.7433 13.18C16.918 12.856 16.9537 12.464 16.8465 12.108L16.7274 11.712C16.5924 11.268 16.2152 10.96 15.7825 10.948L14.9368 10.92L14.9447 10.688L15.7904 10.716C16.3224 10.736 16.787 11.108 16.9498 11.648L17.0689 12.044C17.1959 12.46 17.1483 12.916 16.9458 13.292L16.7711 13.62Z" fill="#0081C9"/>
<path d="M13.2573 16.304C13.2176 16.304 13.1818 16.3 13.1421 16.288L12.3203 16.04L12.3877 15.816L13.2096 16.064C13.2692 16.08 13.3248 16.064 13.3724 16.024C13.424 15.972 13.4439 15.896 13.428 15.824L13.3049 15.332C13.2533 15.124 13.2414 14.804 13.2771 14.52C13.3089 14.264 13.3962 13.932 13.6186 13.808L14.3491 13.428C14.5119 13.336 14.643 13.188 14.7184 13.008L14.8931 12.592L15.1075 12.68L14.9328 13.096C14.8375 13.328 14.6668 13.516 14.4563 13.632L13.7258 14.012C13.4955 14.14 13.432 14.9 13.5233 15.272L13.6464 15.764C13.6861 15.92 13.6384 16.084 13.5273 16.192C13.4518 16.264 13.3526 16.304 13.2533 16.304H13.2573Z" fill="#0081C9"/>
<path d="M10.6447 18.4L10.5931 18.172L12.1018 17.824C12.5465 17.72 12.9793 17.552 13.3803 17.32L14.9883 16.388L14.6032 15.712C14.5119 15.552 14.4841 15.36 14.5278 15.18C14.5714 14.996 14.6826 14.844 14.8375 14.748L14.9685 14.668C15.3536 14.436 15.842 14.544 16.104 14.928L16.4375 15.416L16.247 15.548L15.9135 15.06C15.7229 14.78 15.3655 14.7 15.0876 14.868L14.9566 14.948C14.7461 15.076 14.6747 15.372 14.8017 15.6L15.302 16.476L13.4915 17.524C13.0706 17.768 12.618 17.948 12.1495 18.056L10.6407 18.404L10.6447 18.4Z" fill="#0081C9"/>
<path d="M16.1199 18.624L15.8936 18.58L15.9373 18.36C16.0643 17.716 16.3899 17.128 16.8505 16.708C17.1205 16.46 17.2833 16.224 17.3825 15.936C17.3825 15.928 17.3905 15.916 17.3905 15.908C17.4619 15.688 17.4778 15.448 17.4302 15.216L17.3269 14.684L17.5533 14.64L17.6565 15.172C17.7081 15.444 17.6922 15.724 17.6088 15.98C17.6088 15.992 17.6009 16 17.5969 16.012C17.4858 16.34 17.3031 16.608 17.0014 16.884C16.5765 17.272 16.2787 17.812 16.1596 18.408L16.116 18.628L16.1199 18.624Z" fill="#0081C9"/>
<path d="M18.2441 13.084C18.0972 13.084 17.9543 13.06 17.8113 13.016L17.1046 12.788L17.1761 12.568L17.8828 12.796C18.4466 12.976 19.0462 12.72 19.3439 12.176L19.5464 12.288C19.3797 12.596 19.1136 12.84 18.8 12.972C18.6213 13.048 18.4347 13.084 18.2441 13.084Z" fill="#0081C9"/>
<path d="M13.4677 21.732C13.3764 21.732 13.2851 21.712 13.1977 21.676L12.7451 21.484C12.491 21.376 12.2845 21.172 12.1694 20.912C12.0503 20.652 12.0264 20.356 12.1058 20.08L12.2964 19.408L12.5188 19.472L12.3282 20.144C12.2011 20.6 12.4275 21.096 12.8364 21.268L13.289 21.46C13.4081 21.512 13.5392 21.508 13.6583 21.456C13.7853 21.396 13.8846 21.284 13.9322 21.144L13.9521 21.088L14.1705 21.16L14.1506 21.216C14.0831 21.416 13.9402 21.584 13.7536 21.668C13.6623 21.712 13.563 21.732 13.4677 21.732Z" fill="#0081C9"/>
<path d="M10.4422 11.316V11.084H11.5301C11.8041 11.084 12.0701 10.94 12.2329 10.704L12.3798 10.492C12.5942 10.184 12.5862 9.75995 12.3679 9.45995L12.2368 9.27995C12.078 9.05995 11.8358 8.93195 11.5738 8.93195H10.4343V8.69995H11.5698C11.8994 8.69995 12.217 8.86395 12.4195 9.14395L12.5505 9.32395C12.6855 9.51195 12.7609 9.73595 12.7609 9.97195C12.7609 10.208 12.6934 10.436 12.5624 10.628L12.4155 10.84C12.209 11.14 11.8755 11.32 11.5222 11.32H10.4303L10.4422 11.316Z" fill="#0081C9"/>
<path d="M17.5414 7.36805C17.3786 7.36805 17.2118 7.32805 17.061 7.24405L16.8545 7.13205L16.9657 6.92805L17.1721 7.04005C17.2912 7.10405 17.4183 7.13605 17.5414 7.13605C17.728 7.13605 17.9106 7.06805 18.0615 6.93605C18.1846 6.82805 18.2005 6.62805 18.0933 6.50005L17.188 5.39605L17.3667 5.24805L18.2719 6.35205C18.4585 6.58005 18.4308 6.92005 18.2124 7.11205C18.0178 7.28405 17.7796 7.37205 17.5414 7.37205V7.36805Z" fill="#0081C9"/>
<path d="M13.8052 7.94793L13.3605 7.18793C13.2533 7.00793 13.2215 6.79193 13.2652 6.58393C13.3089 6.37593 13.428 6.19593 13.5987 6.07993L13.956 5.83993C14.1228 5.72793 14.3213 5.68393 14.5159 5.71193C14.7104 5.74393 14.8891 5.84393 15.0161 6.00393C15.1313 6.13993 15.1829 6.32393 15.163 6.50793C15.1432 6.68793 15.0558 6.84793 14.9208 6.95993L14.8732 6.99593L14.7303 6.81193L14.7779 6.77593C14.8653 6.70393 14.9208 6.59993 14.9367 6.48393C14.9486 6.36393 14.9129 6.24393 14.8414 6.15193C14.6509 5.91993 14.3332 5.86793 14.0871 6.03193L13.7297 6.27193C13.4796 6.43993 13.4041 6.79993 13.559 7.07193L14.0037 7.83193L13.8052 7.95193V7.94793Z" fill="#0081C9"/>
<path d="M18.3791 4.51609C18.121 4.51609 17.9066 4.30409 17.9066 4.04009C17.9066 3.77609 18.117 3.56409 18.3791 3.56409C18.6411 3.56409 18.8516 3.77609 18.8516 4.04009C18.8516 4.30409 18.6411 4.51609 18.3791 4.51609ZM18.3791 3.80009C18.2481 3.80009 18.1409 3.90809 18.1409 4.04009C18.1409 4.17209 18.2481 4.28009 18.3791 4.28009C18.5101 4.28009 18.6173 4.17209 18.6173 4.04009C18.6173 3.90809 18.5101 3.80009 18.3791 3.80009Z" fill="#0081C9"/>
<path d="M12.9237 1.90403C12.6656 1.90403 12.4512 1.69203 12.4512 1.42803C12.4512 1.16403 12.6617 0.952026 12.9237 0.952026C13.1858 0.952026 13.3962 1.16403 13.3962 1.42803C13.3962 1.69203 13.1858 1.90403 12.9237 1.90403ZM12.9237 1.18803C12.7927 1.18803 12.6855 1.29603 12.6855 1.42803C12.6855 1.56003 12.7927 1.66803 12.9237 1.66803C13.0547 1.66803 13.1619 1.56003 13.1619 1.42803C13.1619 1.29603 13.0547 1.18803 12.9237 1.18803Z" fill="#0081C9"/>
<path d="M13.9203 5.02805C13.6622 5.02805 13.4478 4.81605 13.4478 4.55205C13.4478 4.28805 13.6582 4.07605 13.9203 4.07605C14.1823 4.07605 14.3928 4.28805 14.3928 4.55205C14.3928 4.81605 14.1823 5.02805 13.9203 5.02805ZM13.9203 4.31205C13.7893 4.31205 13.6821 4.42005 13.6821 4.55205C13.6821 4.68405 13.7893 4.79205 13.9203 4.79205C14.0513 4.79205 14.1585 4.68405 14.1585 4.55205C14.1585 4.42005 14.0513 4.31205 13.9203 4.31205Z" fill="#0081C9"/>
<path d="M16.1239 1.98801C15.8658 1.98801 15.6514 1.77601 15.6514 1.51201C15.6514 1.24801 15.8619 1.03601 16.1239 1.03601C16.386 1.03601 16.5964 1.24801 16.5964 1.51201C16.5964 1.77601 16.386 1.98801 16.1239 1.98801ZM16.1239 1.27201C15.9929 1.27201 15.8857 1.38001 15.8857 1.51201C15.8857 1.64401 15.9929 1.75201 16.1239 1.75201C16.2549 1.75201 16.3621 1.64401 16.3621 1.51201C16.3621 1.38001 16.2549 1.27201 16.1239 1.27201Z" fill="#0081C9"/>
<path d="M17.5572 3.21201C17.2991 3.21201 17.0847 3.00001 17.0847 2.73601C17.0847 2.47201 17.2952 2.26001 17.5572 2.26001C17.8192 2.26001 18.0297 2.47201 18.0297 2.73601C18.0297 3.00001 17.8192 3.21201 17.5572 3.21201ZM17.5572 2.49601C17.4262 2.49601 17.319 2.60401 17.319 2.73601C17.319 2.86801 17.4262 2.97601 17.5572 2.97601C17.6882 2.97601 17.7954 2.86801 17.7954 2.73601C17.7954 2.60401 17.6882 2.49601 17.5572 2.49601Z" fill="#0081C9"/>
<path d="M16.0961 4.66806C15.8381 4.66806 15.6237 4.45606 15.6237 4.19206C15.6237 3.92806 15.8341 3.71606 16.0961 3.71606C16.3582 3.71606 16.5686 3.92806 16.5686 4.19206C16.5686 4.45606 16.3582 4.66806 16.0961 4.66806ZM16.0961 3.95206C15.9651 3.95206 15.8579 4.06006 15.8579 4.19206C15.8579 4.32406 15.9651 4.43206 16.0961 4.43206C16.2272 4.43206 16.3344 4.32406 16.3344 4.19206C16.3344 4.06006 16.2272 3.95206 16.0961 3.95206Z" fill="#0081C9"/>
<path d="M17.0133 5.53208C16.7552 5.53208 16.5408 5.32008 16.5408 5.05608C16.5408 4.79208 16.7512 4.58008 17.0133 4.58008C17.2753 4.58008 17.4857 4.79208 17.4857 5.05608C17.4857 5.32008 17.2753 5.53208 17.0133 5.53208ZM17.0133 4.81608C16.8822 4.81608 16.775 4.92408 16.775 5.05608C16.775 5.18808 16.8822 5.29608 17.0133 5.29608C17.1443 5.29608 17.2515 5.18808 17.2515 5.05608C17.2515 4.92408 17.1443 4.81608 17.0133 4.81608Z" fill="#0081C9"/>
<path d="M16.6004 7.34006C16.3423 7.34006 16.1279 7.12806 16.1279 6.86406C16.1279 6.60006 16.3383 6.38806 16.6004 6.38806C16.8624 6.38806 17.0728 6.60006 17.0728 6.86406C17.0728 7.12806 16.8624 7.34006 16.6004 7.34006ZM16.6004 6.62406C16.4693 6.62406 16.3621 6.73206 16.3621 6.86406C16.3621 6.99606 16.4693 7.10406 16.6004 7.10406C16.7314 7.10406 16.8386 6.99606 16.8386 6.86406C16.8386 6.73206 16.7314 6.62406 16.6004 6.62406Z" fill="#0081C9"/>
<path d="M14.1585 8.572C13.9004 8.572 13.686 8.36 13.686 8.096C13.686 7.832 13.8965 7.62 14.1585 7.62C14.4206 7.62 14.631 7.832 14.631 8.096C14.631 8.36 14.4206 8.572 14.1585 8.572ZM14.1585 7.856C14.0275 7.856 13.9203 7.964 13.9203 8.096C13.9203 8.228 14.0275 8.336 14.1585 8.336C14.2895 8.336 14.3967 8.228 14.3967 8.096C14.3967 7.964 14.2895 7.856 14.1585 7.856Z" fill="#0081C9"/>
<path d="M15.2107 9.624C14.9526 9.624 14.7382 9.412 14.7382 9.148C14.7382 8.884 14.9487 8.672 15.2107 8.672C15.4728 8.672 15.6832 8.884 15.6832 9.148C15.6832 9.412 15.4728 9.624 15.2107 9.624ZM15.2107 8.908C15.0797 8.908 14.9725 9.016 14.9725 9.148C14.9725 9.28 15.0797 9.388 15.2107 9.388C15.3417 9.388 15.4489 9.28 15.4489 9.148C15.4489 9.016 15.3417 8.908 15.2107 8.908Z" fill="#0081C9"/>
<path d="M14.77 11.3C14.5119 11.3 14.2975 11.088 14.2975 10.824C14.2975 10.56 14.5079 10.348 14.77 10.348C15.032 10.348 15.2424 10.56 15.2424 10.824C15.2424 11.088 15.032 11.3 14.77 11.3ZM14.77 10.584C14.6389 10.584 14.5317 10.692 14.5317 10.824C14.5317 10.956 14.6389 11.064 14.77 11.064C14.901 11.064 15.0082 10.956 15.0082 10.824C15.0082 10.692 14.901 10.584 14.77 10.584Z" fill="#0081C9"/>
<path d="M13.0985 13.2201C12.8404 13.2201 12.626 13.0081 12.626 12.7441C12.626 12.4801 12.8364 12.2681 13.0985 12.2681C13.3605 12.2681 13.5709 12.4801 13.5709 12.7441C13.5709 13.0081 13.3605 13.2201 13.0985 13.2201ZM13.0985 12.5041C12.9674 12.5041 12.8602 12.6121 12.8602 12.7441C12.8602 12.8761 12.9674 12.9841 13.0985 12.9841C13.2295 12.9841 13.3367 12.8761 13.3367 12.7441C13.3367 12.6121 13.2295 12.5041 13.0985 12.5041Z" fill="#0081C9"/>
<path d="M15.2424 12.828C14.9844 12.828 14.77 12.616 14.77 12.352C14.77 12.088 14.9804 11.876 15.2424 11.876C15.5045 11.876 15.7149 12.088 15.7149 12.352C15.7149 12.616 15.5045 12.828 15.2424 12.828ZM15.2424 12.112C15.1114 12.112 15.0042 12.22 15.0042 12.352C15.0042 12.484 15.1114 12.592 15.2424 12.592C15.3735 12.592 15.4807 12.484 15.4807 12.352C15.4807 12.22 15.3735 12.112 15.2424 12.112Z" fill="#0081C9"/>
<path d="M12.0344 16.268C11.7763 16.268 11.5619 16.056 11.5619 15.792C11.5619 15.528 11.7723 15.316 12.0344 15.316C12.2964 15.316 12.5069 15.528 12.5069 15.792C12.5069 16.056 12.2964 16.268 12.0344 16.268ZM12.0344 15.552C11.9033 15.552 11.7961 15.66 11.7961 15.792C11.7961 15.924 11.9033 16.032 12.0344 16.032C12.1654 16.032 12.2726 15.924 12.2726 15.792C12.2726 15.66 12.1654 15.552 12.0344 15.552Z" fill="#0081C9"/>
<path d="M16.4733 16.216C16.2152 16.216 16.0008 16.004 16.0008 15.74C16.0008 15.476 16.2112 15.264 16.4733 15.264C16.7353 15.264 16.9458 15.476 16.9458 15.74C16.9458 16.004 16.7353 16.216 16.4733 16.216ZM16.4733 15.5C16.3423 15.5 16.235 15.608 16.235 15.74C16.235 15.872 16.3423 15.98 16.4733 15.98C16.6043 15.98 16.7115 15.872 16.7115 15.74C16.7115 15.608 16.6043 15.5 16.4733 15.5Z" fill="#0081C9"/>
<path d="M15.9294 19.2441C15.7189 19.2441 15.5482 19.0721 15.5482 18.8601C15.5482 18.6481 15.7189 18.4761 15.9294 18.4761C16.1398 18.4761 16.3105 18.6481 16.3105 18.8601C16.3105 19.0721 16.1398 19.2441 15.9294 19.2441ZM15.9294 18.7081C15.846 18.7081 15.7785 18.7761 15.7785 18.8601C15.7785 18.9441 15.846 19.0121 15.9294 19.0121C16.0128 19.0121 16.0803 18.9441 16.0803 18.8601C16.0803 18.7761 16.0128 18.7081 15.9294 18.7081Z" fill="#0081C9"/>
<path d="M17.3547 19.02C17.0967 19.02 16.8823 18.808 16.8823 18.544C16.8823 18.28 17.0927 18.068 17.3547 18.068C17.6168 18.068 17.8272 18.28 17.8272 18.544C17.8272 18.808 17.6168 19.02 17.3547 19.02ZM17.3547 18.304C17.2237 18.304 17.1165 18.412 17.1165 18.544C17.1165 18.676 17.2237 18.784 17.3547 18.784C17.4858 18.784 17.593 18.676 17.593 18.544C17.593 18.412 17.4858 18.304 17.3547 18.304Z" fill="#0081C9"/>
<path d="M14.1982 19.344C13.9402 19.344 13.7258 19.132 13.7258 18.868C13.7258 18.604 13.9362 18.392 14.1982 18.392C14.4603 18.392 14.6707 18.604 14.6707 18.868C14.6707 19.132 14.4603 19.344 14.1982 19.344ZM14.1982 18.628C14.0672 18.628 13.96 18.736 13.96 18.868C13.96 19 14.0672 19.108 14.1982 19.108C14.3293 19.108 14.4365 19 14.4365 18.868C14.4365 18.736 14.3293 18.628 14.1982 18.628Z" fill="#0081C9"/>
<path d="M15.4331 22.036C15.175 22.036 14.9606 21.824 14.9606 21.56C14.9606 21.296 15.171 21.084 15.4331 21.084C15.6951 21.084 15.9055 21.296 15.9055 21.56C15.9055 21.824 15.6951 22.036 15.4331 22.036ZM15.4331 21.32C15.302 21.32 15.1948 21.428 15.1948 21.56C15.1948 21.692 15.302 21.8 15.4331 21.8C15.5641 21.8 15.6713 21.692 15.6713 21.56C15.6713 21.428 15.5641 21.32 15.4331 21.32Z" fill="#0081C9"/>
<path d="M18.7166 18.6321C18.4585 18.6321 18.2441 18.4201 18.2441 18.1561C18.2441 17.8921 18.4546 17.6801 18.7166 17.6801C18.9787 17.6801 19.1891 17.8921 19.1891 18.1561C19.1891 18.4201 18.9787 18.6321 18.7166 18.6321ZM18.7166 17.9161C18.5856 17.9161 18.4784 18.0241 18.4784 18.1561C18.4784 18.2881 18.5856 18.3961 18.7166 18.3961C18.8476 18.3961 18.9548 18.2881 18.9548 18.1561C18.9548 18.0241 18.8476 17.9161 18.7166 17.9161Z" fill="#0081C9"/>
<path d="M14.0037 21.232C13.7456 21.232 13.5312 21.02 13.5312 20.756C13.5312 20.492 13.7416 20.28 14.0037 20.28C14.2657 20.28 14.4761 20.492 14.4761 20.756C14.4761 21.02 14.2657 21.232 14.0037 21.232ZM14.0037 20.516C13.8726 20.516 13.7654 20.624 13.7654 20.756C13.7654 20.888 13.8726 20.996 14.0037 20.996C14.1347 20.996 14.2419 20.888 14.2419 20.756C14.2419 20.624 14.1347 20.516 14.0037 20.516Z" fill="#0081C9"/>
<path d="M18.4704 16.4C18.2123 16.4 17.9979 16.188 17.9979 15.924C17.9979 15.66 18.2084 15.448 18.4704 15.448C18.7325 15.448 18.9429 15.66 18.9429 15.924C18.9429 16.188 18.7325 16.4 18.4704 16.4ZM18.4704 15.684C18.3394 15.684 18.2322 15.792 18.2322 15.924C18.2322 16.056 18.3394 16.164 18.4704 16.164C18.6014 16.164 18.7086 16.056 18.7086 15.924C18.7086 15.792 18.6014 15.684 18.4704 15.684Z" fill="#0081C9"/>
<path d="M12.5068 19.604C12.2488 19.604 12.0344 19.392 12.0344 19.128C12.0344 18.864 12.2448 18.652 12.5068 18.652C12.7689 18.652 12.9793 18.864 12.9793 19.128C12.9793 19.392 12.7689 19.604 12.5068 19.604ZM12.5068 18.888C12.3758 18.888 12.2686 18.996 12.2686 19.128C12.2686 19.26 12.3758 19.368 12.5068 19.368C12.6379 19.368 12.7451 19.26 12.7451 19.128C12.7451 18.996 12.6379 18.888 12.5068 18.888Z" fill="#0081C9"/>
<path d="M16.3224 14.1361C16.0643 14.1361 15.8499 13.9241 15.8499 13.6601C15.8499 13.3961 16.0603 13.1841 16.3224 13.1841C16.5844 13.1841 16.7949 13.3961 16.7949 13.6601C16.7949 13.9241 16.5844 14.1361 16.3224 14.1361ZM16.3224 13.4201C16.1914 13.4201 16.0842 13.5281 16.0842 13.6601C16.0842 13.7921 16.1914 13.9001 16.3224 13.9001C16.4534 13.9001 16.5606 13.7921 16.5606 13.6601C16.5606 13.5281 16.4534 13.4201 16.3224 13.4201Z" fill="#0081C9"/>
<path d="M18.2044 12.0641C17.9463 12.0641 17.7319 11.8521 17.7319 11.5881C17.7319 11.3241 17.9424 11.1121 18.2044 11.1121C18.4665 11.1121 18.6769 11.3241 18.6769 11.5881C18.6769 11.8521 18.4665 12.0641 18.2044 12.0641ZM18.2044 11.3481C18.0734 11.3481 17.9662 11.4561 17.9662 11.5881C17.9662 11.7201 18.0734 11.8281 18.2044 11.8281C18.3354 11.8281 18.4426 11.7201 18.4426 11.5881C18.4426 11.4561 18.3354 11.3481 18.2044 11.3481Z" fill="#0081C9"/>
<path d="M19.4432 12.42C19.1851 12.42 18.9707 12.208 18.9707 11.944C18.9707 11.68 19.1811 11.468 19.4432 11.468C19.7052 11.468 19.9157 11.68 19.9157 11.944C19.9157 12.208 19.7052 12.42 19.4432 12.42ZM19.4432 11.704C19.3122 11.704 19.205 11.812 19.205 11.944C19.205 12.076 19.3122 12.184 19.4432 12.184C19.5742 12.184 19.6814 12.076 19.6814 11.944C19.6814 11.812 19.5742 11.704 19.4432 11.704Z" fill="#0081C9"/>
<path d="M19.463 10.784C19.2049 10.784 18.9905 10.572 18.9905 10.308C18.9905 10.044 19.201 9.83203 19.463 9.83203C19.7251 9.83203 19.9355 10.044 19.9355 10.308C19.9355 10.572 19.7251 10.784 19.463 10.784ZM19.463 10.068C19.332 10.068 19.2248 10.176 19.2248 10.308C19.2248 10.44 19.332 10.548 19.463 10.548C19.594 10.548 19.7012 10.44 19.7012 10.308C19.7012 10.176 19.594 10.068 19.463 10.068Z" fill="#0081C9"/>
<path d="M14.6787 7.56797C14.4206 7.56797 14.2062 7.35597 14.2062 7.09197C14.2062 6.82797 14.4166 6.61597 14.6787 6.61597C14.9407 6.61597 15.1511 6.82797 15.1511 7.09197C15.1511 7.35597 14.9407 7.56797 14.6787 7.56797ZM14.6787 6.85197C14.5476 6.85197 14.4404 6.95997 14.4404 7.09197C14.4404 7.22397 14.5476 7.33197 14.6787 7.33197C14.8097 7.33197 14.9169 7.22397 14.9169 7.09197C14.9169 6.95997 14.8097 6.85197 14.6787 6.85197Z" fill="#0081C9"/>
<path d="M12.4036 8.05598C12.2289 8.05598 12.0621 7.95998 11.9827 7.79198C11.9271 7.67998 11.9192 7.54798 11.9589 7.42798C11.9986 7.30798 12.082 7.21198 12.1971 7.15598C12.4314 7.03998 12.7133 7.13598 12.8284 7.36798C12.884 7.47998 12.8919 7.61198 12.8522 7.73198C12.8125 7.85198 12.7292 7.94798 12.614 8.00398C12.5465 8.03598 12.4751 8.05198 12.4036 8.05198V8.05598ZM12.3996 7.33998C12.3639 7.33998 12.3281 7.34798 12.2924 7.36398C12.2368 7.39198 12.1932 7.44398 12.1733 7.50398C12.1534 7.56398 12.1574 7.63198 12.1852 7.68798C12.2448 7.80798 12.3877 7.85598 12.5068 7.79598C12.5624 7.76798 12.6061 7.71598 12.6259 7.65598C12.6458 7.59598 12.6418 7.52798 12.614 7.47198C12.5703 7.38798 12.487 7.33598 12.3996 7.33598V7.33998Z" fill="#0081C9"/>
<path d="M12.5664 3.676C12.3083 3.676 12.0939 3.464 12.0939 3.2C12.0939 2.936 12.3044 2.724 12.5664 2.724C12.8285 2.724 13.0389 2.936 13.0389 3.2C13.0389 3.464 12.8285 3.676 12.5664 3.676ZM12.5664 2.96C12.4354 2.96 12.3282 3.068 12.3282 3.2C12.3282 3.332 12.4354 3.44 12.5664 3.44C12.6974 3.44 12.8046 3.332 12.8046 3.2C12.8046 3.068 12.6974 2.96 12.5664 2.96Z" fill="#0081C9"/>
<path d="M11.5063 14.4961C11.2482 14.4961 11.0338 14.2841 11.0338 14.0201C11.0338 13.7561 11.2442 13.5441 11.5063 13.5441C11.7683 13.5441 11.9788 13.7561 11.9788 14.0201C11.9788 14.2841 11.7683 14.4961 11.5063 14.4961ZM11.5063 13.7801C11.3753 13.7801 11.2681 13.8881 11.2681 14.0201C11.2681 14.1521 11.3753 14.2601 11.5063 14.2601C11.6373 14.2601 11.7445 14.1521 11.7445 14.0201C11.7445 13.8881 11.6373 13.7801 11.5063 13.7801Z" fill="#0081C9"/>
<path d="M12.2924 22.976C12.0343 22.976 11.8199 22.764 11.8199 22.5C11.8199 22.236 12.0304 22.024 12.2924 22.024C12.5545 22.024 12.7649 22.236 12.7649 22.5C12.7649 22.764 12.5545 22.976 12.2924 22.976ZM12.2924 22.26C12.1614 22.26 12.0542 22.368 12.0542 22.5C12.0542 22.632 12.1614 22.74 12.2924 22.74C12.4235 22.74 12.5307 22.632 12.5307 22.5C12.5307 22.368 12.4235 22.26 12.2924 22.26Z" fill="#0081C9"/>
<path d="M12.6935 14.72C12.5346 14.72 12.3798 14.676 12.2369 14.592L11.7247 14.292L11.8398 14.092L12.352 14.392C12.5148 14.488 12.6935 14.512 12.8721 14.464C13.1103 14.4 13.3327 14.212 13.4875 13.932L13.6861 14.048C13.4955 14.38 13.2295 14.608 12.9277 14.688C12.8483 14.708 12.7689 14.72 12.6895 14.72H12.6935Z" fill="#0081C9"/>
<path d="M11.9192 22.436C11.7644 22.376 11.6611 22.28 11.6095 22.156C11.5023 21.9 11.6333 21.58 11.7604 21.268C11.808 21.148 11.8596 21.024 11.8914 20.912L12.0701 20.316L12.2924 20.384L12.1138 20.98C12.078 21.104 12.0224 21.232 11.9748 21.356C11.8636 21.624 11.7524 21.9 11.8199 22.064C11.8477 22.132 11.9073 22.18 12.0026 22.22L11.9192 22.436Z" fill="#0081C9"/>
<path d="M9.44565 14.3439H7.65499L7.16663 13.8959L7.6272 13.4399H9.44962V13.6719H7.72249L7.50411 13.8919L7.74234 14.1119H9.44565V14.3439Z" fill="#FBA834"/>
<path d="M5.17743 14.236L5.02655 14.06L7.05544 12.336H7.09911C7.09911 12.336 8.21083 12.328 8.71508 12.328V3.19201L8.37759 2.81201L8.54832 2.65601L8.94536 3.10001V12.556H8.83022C8.45303 12.556 7.3691 12.564 7.14279 12.564L5.17743 14.236Z" fill="#FBA834"/>
<path d="M4.62954 14.732L3.59326 13.844L6.61873 11.308H8.25057V11.54H6.70211L3.9506 13.848L4.78042 14.556L4.62954 14.732Z" fill="#FBA834"/>
<path d="M8.2704 8.58002H5.18935L3.47413 6.83602L4.3635 5.81602L3.00562 4.42402L4.13719 4.19202L5.61816 5.78802L4.74069 6.82402L5.70154 7.76402H8.31011V7.99602H5.60625L4.42306 6.84002L5.30846 5.79602L4.05778 4.44802L3.47016 4.56802L4.67716 5.80802L3.79176 6.82802L5.28861 8.34802H8.2704V8.58002Z" fill="#FBA834"/>
<path d="M0.00397043 13.3761L0 8.90006L1.15142 7.66406L0.480422 6.86006L1.54053 4.74406L2.46166 5.79206L1.83434 6.82006L2.46564 7.56406L0.968784 9.26406L1.00452 11.1041L1.55641 10.6521L1.43729 9.30406L3.20811 7.50006L2.49343 6.83206L3.31134 5.83606L1.86213 4.23206L2.37034 3.79206L4.54614 3.33606L6.02711 4.97606L7.2103 3.92006L7.24206 5.07606L5.73727 6.83206L6.1899 7.22006H8.31407V7.45206H6.10255L5.40772 6.85606L7.0078 4.99206L6.99192 4.42806L6.00726 5.30406L4.46276 3.59206L2.47358 4.00806L2.19168 4.25206L3.61706 5.82806L2.81106 6.81206L3.54162 7.49206L1.67949 9.39206L1.7986 10.7561L0.782174 11.5841L0.734529 9.18006L2.15991 7.56006L1.54847 6.84406L2.17579 5.82006L1.59214 5.15606L0.754381 6.82806L1.45715 7.67206L0.230285 8.99206L0.234255 12.8321L1.24274 11.8641L3.5853 12.2281L6.06681 10.0961H8.25849V10.3281H6.15019L3.65279 12.4761L1.32215 12.1121L0.00397043 13.3761Z" fill="#FBA834"/>
<path d="M3.44631 11.808L2.08843 11.32L1.72315 11.676L1.56433 11.508L2.03284 11.052L3.39867 11.544L4.38333 10.708L3.72424 10.176L2.8706 10.996L2.1996 10.376L2.12416 9.38403L3.72821 7.72803L4.93919 8.93203H8.25053V9.16403H4.8439L3.73218 8.06003L2.36239 9.47203L2.42194 10.268L2.86663 10.676L3.70836 9.86803L4.74464 10.704L3.44631 11.808Z" fill="#FBA834"/>
<path d="M7.56764 20.724L2.08051 15.536L2.76343 15.024L1.68347 14.36L1.80656 14.16L3.17238 15.008L2.43785 15.56L7.72646 20.556L7.56764 20.724Z" fill="#FBA834"/>
<path d="M8.79846 19.808H8.56817V15.488H7.09514L5.41168 13.836L5.57447 13.672L7.18646 15.256H8.79846V19.808Z" fill="#FBA834"/>
</g>
<defs>
<clipPath id="clip0_1_1052">
<rect width="203" height="24" fill="white"/>
</clipPath>
</defs>
</svg>
