<svg width="20" height="20" viewBox="0 0 20 20" fill="none" xmlns="http://www.w3.org/2000/svg">
<path d="M19.7382 16.8968L1.13392 2.01308C0.834141 1.77416 0.395379 1.8214 0.152835 2.12209C-0.0878942 2.42278 -0.0388348 2.86247 0.261847 3.1032L1.86065 4.38227V17.4419C1.86065 18.8527 3.00797 20 4.41873 20H15.5813C16.992 20 18.1394 18.8527 18.1394 17.4419V17.4055L18.8661 17.9869C18.9951 18.0896 19.1486 18.1395 19.3021 18.1395C19.5065 18.1395 19.7091 18.0496 19.8472 17.8779C20.0879 17.5772 20.0388 17.1375 19.7382 16.8968ZM16.744 17.4419C16.744 18.0832 16.2226 18.6047 15.5813 18.6047H4.41873C3.7774 18.6047 3.25597 18.0832 3.25597 17.4419V5.49856L16.744 16.2892V17.4419ZM4.41873 1.39535H11.1628V4.4186C11.1628 5.8294 12.3101 6.97674 13.7208 6.97674H16.744V13.0133L18.1394 14.1296V6.11918C18.1394 5.43604 17.8732 4.79379 17.3899 4.31049L13.829 0.749451C13.3457 0.266167 12.7034 0 12.0203 0H4.41873C3.44434 0 2.60589 0.553572 2.17405 1.35697L3.31438 2.26931C3.4457 1.77115 3.87977 1.39535 4.41873 1.39535ZM12.5581 1.54655C12.6591 1.6002 12.7609 1.65454 12.8424 1.73601L16.4034 5.29705C16.4848 5.37853 16.5392 5.48033 16.5928 5.58139H13.7208C13.0795 5.58139 12.5581 5.05994 12.5581 4.4186L12.5581 1.54655Z" fill="white"/>
</svg>
