<svg width="20" height="20" viewBox="0 0 20 20" fill="none" xmlns="http://www.w3.org/2000/svg">
<path d="M17.9092 7.03776C17.8378 6.96841 17.781 6.8855 17.7421 6.79391C17.7031 6.70231 17.6829 6.60387 17.6825 6.50434V4.39731C17.6818 3.84577 17.4624 3.31702 17.0723 2.92702C16.6823 2.53702 16.1534 2.31763 15.6018 2.31696H13.4945C13.3949 2.31653 13.2965 2.29626 13.2049 2.25733C13.1133 2.2184 13.0303 2.1616 12.961 2.09025L11.4805 0.609999C11.0868 0.219271 10.5547 0 10 0C9.44533 0 8.91315 0.219271 8.51952 0.609999L7.03905 2.09025C6.96966 2.1616 6.88674 2.2184 6.79513 2.25733C6.70353 2.29626 6.60508 2.31653 6.50554 2.31696H4.3982C3.84657 2.31763 3.31774 2.53702 2.92768 2.92702C2.53762 3.31702 2.3182 3.84577 2.31753 4.39731V6.50434C2.31713 6.60387 2.29688 6.70231 2.25794 6.79391C2.21901 6.8855 2.16218 6.96841 2.09079 7.03776L0.61031 8.51802C0.219393 8.91152 0 9.44364 0 9.99827C0 10.5529 0.219393 11.085 0.61031 11.4785L2.09079 12.9588C2.16218 13.0281 2.21901 13.111 2.25794 13.2026C2.29688 13.2942 2.31713 13.3927 2.31753 13.4922V15.5992C2.3182 16.1508 2.53762 16.6795 2.92768 17.0695C3.31774 17.4595 3.84657 17.6789 4.3982 17.6796H6.50554C6.60508 17.68 6.70353 17.7003 6.79513 17.7392C6.88674 17.7781 6.96966 17.8349 7.03905 17.9063L8.51952 19.3865C8.71389 19.581 8.94468 19.7353 9.19871 19.8406C9.45274 19.9458 9.72502 20 10 20C10.275 20 10.5473 19.9458 10.8013 19.8406C11.0553 19.7353 11.2861 19.581 11.4805 19.3865L12.961 17.9063C13.0303 17.8349 13.1133 17.7781 13.2049 17.7392C13.2965 17.7003 13.3949 17.68 13.4945 17.6796H15.6018C16.1534 17.6789 16.6823 17.4595 17.0723 17.0695C17.4624 16.6795 17.6818 16.1508 17.6825 15.5992V13.4922C17.6829 13.3927 17.7031 13.2942 17.7421 13.2026C17.781 13.111 17.8378 13.0281 17.9092 12.9588L19.3897 11.4785C19.7806 11.085 20 10.5529 20 9.99827C20 9.44364 19.7806 8.91152 19.3897 8.51802L17.9092 7.03776ZM13.1343 8.69138L9.58653 12.252C9.45815 12.3721 9.28889 12.439 9.11305 12.439C8.93721 12.439 8.76794 12.3721 8.63956 12.252L6.86566 10.465C6.74391 10.3408 6.67611 10.1736 6.67699 9.99965C6.67786 9.82574 6.74735 9.65919 6.87035 9.53621C6.99335 9.41324 7.15991 9.34376 7.33386 9.34288C7.5078 9.342 7.67506 9.40979 7.79929 9.53152L9.10638 10.8384L12.2007 7.74455C12.3255 7.62273 12.4931 7.55453 12.6675 7.55453C12.842 7.55453 13.0095 7.62273 13.1343 7.74455C13.1977 7.80606 13.248 7.87966 13.2824 7.96097C13.3168 8.04229 13.3345 8.12968 13.3345 8.21797C13.3345 8.30625 13.3168 8.39364 13.2824 8.47496C13.248 8.55627 13.1977 8.62987 13.1343 8.69138Z" fill="#0B9F8D"/>
</svg>
